<svg id="drawing" width="1920" height="1080" version="1.1" viewBox="0 0 1920 1080" xmlns="http://www.w3.org/2000/svg">
	<g>
		<g fill="#fff">
			<rect x="3.96" y="2.92" width="1914" height="401"/>
			<g stroke="#000">
				<path d="m574 339-92.9 5.69-93.3-0.539-92.1 5.96c-140 16.4-217 28.8-252 38.6l-83.1 2.98 17.9 703 1968 2.98c-4.01-235 49.7-518-28-717l-238-29.5-93.2 0.357-93.7-0.727-91.6-7.85-94.2-1.59-91.2 9.43-93.6 3.39-88.3 12.8-93.1-1.41-92.2-5.57-90.1-9.42-92.1-5.62z" fill-rule="evenodd" stroke-width="2.8"/>
				<g stroke-linecap="round">
					<path d="m654 219-28.6-23.1-5.4 36.4-11.5-34.9-24.2 27.7 9.18-35.6-35.3 10.2 27-25-35.2-10.5 36.2-6.45-24-27.9 33.9 14.2-5.08-36.4 20.9 30.3 15.4-33.4 1.23 36.8 31-19.7-18.8 31.6 36.8 0.162-32.9 16.4 30.9 20-36.6-4.02z" fill-opacity=".962" stroke-width="1.94"/>
					<g stroke-width="3">
						<rect transform="matrix(-1 1.22e-16 -1.22e-16 -1 608 1236)" x="282" y="558" width="43.9" height="119"/>
						<path d="m139 604 97.5-32.2 65.2 28 65.6-23.7 97.1 28.4c-62.1-62.3-112-129-162-196-46.4 68.7-105 132-163 196z"/>
						<path d="m151 532 89.5-32.3 59.9 28 60.2-23.7 89.2 28.4c-57.1-62.3-103-129-149-196-42.6 68.7-96.4 132-150 196z"/>
						<path d="m173 465 76.1-32.3 50.9 28 51.2-23.7 75.8 28.4c-48.5-62.4-87.2-129-127-197-36.2 68.7-82 132-127 196z"/>
						<path d="m206 390 57.3-26.7 38.3 23.2 38.5-19.7 57 23.5c-36.5-51.7-65.6-107-95.2-163-27.3 56.9-61.7 109-95.8 162z"/>
					</g>
					<g stroke-width="2.3">
						<rect transform="matrix(-1 1.22e-16 -1.22e-16 -1 2684 849)" x="1326" y="381" width="32.1" height="87.4"/>
						<path d="m1222 414 71.4-23.6 47.7 20.5 48-17.4 71.1 20.8c-45.5-45.7-81.8-94.8-119-144-34 50.3-76.9 96.8-119 144z"/>
						<path d="m1230 361 65.6-23.6 43.9 20.5 44.1-17.4 65.3 20.8c-41.8-45.7-75.2-94.8-109-144-31.2 50.3-70.6 96.8-110 144z"/>
						<path d="m1247 313 55.8-23.6 37.3 20.5 37.5-17.4 55.5 20.8c-35.6-45.7-63.9-94.8-92.7-144-26.5 50.3-60 96.8-93.3 144z"/>
						<path d="m1270 258 41.9-19.6 28 17 28.2-14.4 41.8 17.2c-26.7-37.8-48.1-78.5-69.8-119-20 41.7-45.2 80.2-70.2 119z"/>
					</g>
				</g>
			</g>
		</g>
		<g fill="#fff" stroke="#000" stroke-linecap="round">
			<g stroke-width="2">
				<path d="m1612 381c-13.7 19.5-17.1 45.7-9.54 72.6-0.08 0.496-0.15 0.992-0.22 1.49-23.1 0.283-43.4 8.73-57.3 23.9-18.1 19.8-23.6 49.1-15 79.5-6.25 31.1 1.6 60 21.3 78.4 3.9 3.58 8.2 6.71 12.9 9.34-3.45 31 6.53 58.6 27.2 75.2 34.5 27.7 89.9 18.3 129-21.8 21.8 14.1 46.2 16.4 65.5 6.29 19.8-10.4 31.7-32.5 32-59.2 6.59-3.66 12.5-8.25 17.5-13.7 18.1-19.8 23.6-49.1 15-79.5 6.24-31.1-1.61-60-21.3-78.4-7.92-7.3-17.5-12.7-28.2-15.9-0.62-4.35-1.53-8.73-2.73-13.1 6.25-31.1-1.6-60-21.3-78.4-19.9-18.5-49.6-24.2-80.4-15.6-31.6-6.29-60.8 1.79-79.2 21.9-1.98 2.17-3.82 4.46-5.51 6.87z"/>
				<path d="m1691 535s-5.34 10.1-7.33 23.1l-1.38 50c-0.04 0.057-0.1 0.119-0.14 0.176 0.04 8e-3 0.09 0.019 0.13 0.029l-0.95 34.3c-21.4-11.2-42.8-22.6-65.2-35.5 22.2 21.8 44.4 43.6 64.4 64.9l-1.9 68.6c-37.1-18.9-74.3-38-113-59.8 35 33.7 70 67.2 102 100l-16.2 227c9.67 25.7 12.4 6.2 36.4 5.94 7.65-0.09 23.3 18.3 33.9-8.29l-10.6-226c35.8-25.3 71.6-50.5 111-75.9-40.3 13.4-80.6 26.7-120 38.4l-2.28-126c7.12-20.9 28.8-53.6 36.6-74.9-8.87 12.9-24 30.1-37.1 45.5l-0.53-29c-3.33-15.4-7.54-22.4-8-23.1z"/>
				<path d="m1818 631c-10.6-2.6-22.2 1.13-31.4 10.1-12.4 3.83-21.2 12.3-23.9 22.9-1.07 4.25-1.13 8.72-0.18 13.2-1.44 1.07-2.83 2.25-4.16 3.53-12.3 3.83-21.1 12.3-23.9 22.9-2.74 10.7 0.99 22.4 10.1 31.8 3.9 12.5 12.5 21.4 23.2 24 10.6 2.6 22.2-1.13 31.4-10.1 12.4-3.83 21.2-12.3 23.9-22.9 1.07-4.25 1.13-8.72 0.19-13.2 1.43-1.07 2.82-2.24 4.14-3.52 12.4-3.83 21.2-12.3 23.9-22.9 2.74-10.7-0.99-22.4-10.1-31.8-3.89-12.5-12.5-21.4-23.2-24z"/>
				<path d="m1578 639c10.6-2.6 22.2 1.13 31.4 10.1 12.4 3.83 21.2 12.3 23.9 22.9 1.07 4.25 1.13 8.72 0.18 13.2 1.44 1.07 2.82 2.25 4.15 3.52 12.4 3.83 21.2 12.3 23.9 22.9 2.74 10.7-0.99 22.4-10.1 31.8-3.9 12.5-12.5 21.4-23.2 24-10.6 2.6-22.2-1.13-31.4-10.1-12.4-3.83-21.2-12.3-23.9-22.9-1.07-4.25-1.13-8.72-0.19-13.2-1.43-1.07-2.82-2.24-4.15-3.52-12.3-3.83-21.1-12.3-23.9-22.9-2.74-10.7 0.99-22.4 10.1-31.8 3.89-12.5 12.5-21.4 23.2-24z"/>
			</g>
			<path d="m1692 967c-5.46 18.5-2.31 47.6-5.16 47.6s-8.06-30.5-2.58-48.9c3.37-11.3-0.27-46.2 2.58-46.2s11.3 26.7 5.16 47.6z" stroke-width="2"/>
			<ellipse cx="1682" cy="845" rx="8.8" ry="23.7" stroke-width=".739"/>
		</g>
		<g fill="#fff" stroke="#000">
			<path d="m1300 774c-32.3 0.014-60.5 15.6-68.4 37.7-34.1 3.94-59.2 24.8-59.2 49.2 0 27.6 31.6 49.9 70.6 49.9 6.78-1e-3 13.5-0.693 20-2.05 13.4 12.1 33.8 19.2 55.6 19.2 39 0 70.6-22.3 70.6-49.9 0-14-8.33-27.4-23-36.8 2.92-5.56 4.41-11.4 4.41-17.4 0-27.6-31.6-49.9-70.6-49.9z" stroke-width="2"/>
			<path d="m1342 792c32.3 0.015 60.5 15.6 68.4 37.7 34.1 3.94 59.2 24.8 59.2 49.2 0 27.6-31.6 49.9-70.6 49.9-6.78-1e-3 -13.5-0.692-20-2.05-13.4 12.1-33.8 19.2-55.6 19.2-39 0-70.6-22.3-70.6-49.9 0-14 8.32-27.4 22.9-36.8-2.91-5.56-4.41-11.4-4.41-17.4 0-27.6 31.6-49.9 70.6-49.9z" stroke-width="1.99"/>
			<path d="m1276 859c-20.5 9e-3 -38.4 9.88-43.4 23.9-21.6 2.5-37.5 15.7-37.6 31.2 0 17.5 20 31.7 44.8 31.7 4.29-1e-3 8.57-0.439 12.7-1.3 8.48 7.67 21.5 12.1 35.2 12.2 24.7 0 44.8-14.2 44.8-31.7 0-8.88-5.28-17.4-14.6-23.4 1.85-3.52 2.8-7.25 2.8-11 0-17.5-20-31.7-44.8-31.7z" stroke-width="2"/>
			<path d="m1399 869c-20.5 9e-3 -38.4 9.88-43.4 23.9-21.6 2.5-37.6 15.7-37.6 31.2 0 17.5 20 31.7 44.8 31.7 4.3 0 8.58-0.439 12.7-1.3 8.48 7.67 21.5 12.2 35.2 12.2 24.7 0 44.8-14.2 44.8-31.7 0-8.89-5.28-17.4-14.6-23.4 1.85-3.52 2.8-7.25 2.8-11 0-17.5-20-31.7-44.8-31.7z" stroke-width="2"/>
		</g>
		<path id="queue" d="m891 620c10.3 8.34 1.66 26.1 6.56 51.9 3.96 20.9 2.65 37.6-1.16 54.7-0.695 3.11-0.787 12.8-1.72 15.5-6.04 17.6-16.1 23.2-26.4 14.9 0.253-57.5 19.5-98.3 22.7-137z" fill="#fff" stroke="#000" stroke-width="2"/>
		<g fill="#fff" stroke="#000">
			<path d="m850 661c11.6-0.659 23.1-1.28 34.7 10.6 13.9 15.5 20.7 37.5 26.6 60.6l2.04 76 3.06 54.8-3.06 68.3 8.17 30.8c-11.5 13.8-17.9 21.3-43.9 2.88 10.7-20.8 9.58-46 11.2-70.2z" stroke-width="2"/>
			<g stroke-width="1.77">
				<path d="m910 732c2.75 1.61 0.444 5.03 1.75 10 1.06 4.02 0.707 7.24-0.309 10.5-0.186 0.598-0.21 2.47-0.459 2.99-1.61 3.38-6.06 3.45-8.81 1.85-0.092-11.3-0.079-26.4 7.83-25.4z"/>
				<path d="m911 801c2.75 1.61 0.444 5.03 1.75 10 1.06 4.02 0.707 7.24-0.31 10.5-0.185 0.598-0.209 2.47-0.458 2.99-1.61 3.38-6.07 3.46-8.81 1.85-0.041-4.92-6.19-15.9 0.589-15.3 6.5 0.535 2.79-10.6 7.24-10z"/>
				<path d="m897 870c2.75 1.6 0.444 5.03 1.75 10 1.06 4.02 0.706 7.24-0.31 10.5-0.185 0.599-0.21 2.47-0.459 2.99-1.61 3.38-6.06 3.45-8.81 1.85-0.092-11.3-0.079-26.4 7.83-25.4z"/>
			</g>
		</g>
		<g fill="#fff" stroke="#000">
			<g>
				<path d="m751 585-3.57 74.1c-30.3 7.87-32 84.2-31.7 157l24.5 154c-19 18.4-36.4 19.2-10.2 33.7l46-10.6 22.5-157c67.7-20.3 39.2 109 52.1 161 43.5 14.6 44 2.06 27.6-31.7l1.02-80.8v-145c-18.3-28.9-10.1-76.7-47-89.9l-6.13-65.4c-19.9 24.5-44.1 5.19-75.1 0.962z" stroke-width="2"/>
				<path d="m825 585c0 11.5 8.98 32.2-1.36 34.2-7.94 1.52-4.5 10.4-9.94 12.6-5.77 2.31-2.43 17.1-7.21 22.3-9.42 10.3-10.4-21.4-28-21.5-13.1-0.078-7.02-7.78-11.1-9.75-6.48-3.15-12.9-7.7-9.43-9.89 3.57-2.24 3.95-9.22-2.99-11.3-6.15-1.8-4.05-9.31-4.05-16.7 29.5-5.64 53-4.29 74 0z" stroke-width="2"/>
				<path d="m754 671c10.4 4.83 1.69 15.1 6.64 30.1 4.02 12.1 2.68 21.8-1.18 31.7-0.704 1.8-0.797 7.44-1.74 9-6.12 10.2-20.5 11.8-30.9 6.96-0.35-33.9-2.89-80.9 27.2-77.7z" stroke-width="1.53"/>
				<path d="m831 666c-10.4 4.6-1.68 14.4-6.65 28.6-4.02 11.5-2.68 20.7 1.18 30.1 0.704 1.71 0.797 7.07 1.74 8.57 6.12 9.68 23 9.89 33.5 5.29 0.349-32.3 0.3-75.7-29.8-72.6z" stroke-width="1.49"/>
				<path d="m793 702c2.75 2.22 0.444 6.97 1.75 13.8 1.06 5.57 9.39-3.92-0.31 14.6-0.398 0.76 9.75 15.4 9.5 16.2-1.61 4.68-16-7.24-18.8-9.46-5.72-24.9-0.081-36.6 7.83-35.1z" stroke-width="2"/>
				<path d="m776 867c1.14 3.57-3.92 4.96-6.99 10.5-2.49 4.5-5.58 7.19-9.34 9.43-0.685 0.408-2.32 2.11-2.99 2.4-4.38 1.87-8.54-1.46-9.68-5.02 9.6-10.4 22.7-24.3 29-17.3z" stroke-width="2"/>
			</g>
			<path d="m762 956c0.859 2.69-2.95 3.73-5.26 7.91-1.87 3.38-4.2 5.41-7.03 7.1-0.516 0.307-1.74 1.59-2.25 1.8-3.3 1.41-6.43-1.1-7.29-3.78 7.23-7.84 17.1-18.3 21.8-13z" stroke-width="1.63"/>
			<g>
				<path d="m840 833c-1.13 3.55 3.9 4.93 6.95 10.4 2.47 4.47 5.55 7.15 9.28 9.37 0.681 0.406 2.3 2.1 2.98 2.38 4.36 1.86 8.49-1.45 9.62-4.99-9.54-10.4-22.5-24.2-28.8-17.2z" stroke-width="2"/>
				<path d="m873 908c1 4.57-3.45 6.34-6.16 13.4-2.19 5.75-4.91 9.2-8.22 12.1-0.603 0.522-2.04 2.7-2.64 3.07-3.86 2.4-7.52-1.86-8.52-6.43 8.46-13.3 19.9-31.1 25.5-22.2z" stroke-width="2"/>
				<path d="m790 784c3.84 2.24 0.619 7.02 2.44 14 1.48 5.61 0.987 10.1-0.432 14.7-0.259 0.835-0.293 3.45-0.64 4.18-2.25 4.72-8.47 4.82-12.3 2.58-0.057-6.87-8.64-22.2 0.823-21.4 9.08 0.748 3.89-14.9 10.1-14z" stroke-width="2"/>
			</g>
		</g>
		<g fill="#fff">
			<g stroke="#000" stroke-width="2">
				<path d="m732 489c-4.91-19.5-29.2-4.17-49.4 3.9 2.67 14.1-17.7 16.6-30.3 23.1 0.96 8.84 4.2 17.9-6.45 25.4 3.94 11.6 1.73 22.5 12.9 34.9 3.39 17.6 7.72 33.8 28 25.6 13.2-0.68 23.3 3.51 29.6 13.6 7.79-17.2 16.3-34.3 3.01-53.9z"/>
				<path d="m821 491c-2.42-19.9 25.9-13.3 47.9-12.2 2.6 14.1 22.7 9.97 36.9 12 2.29 8.62 2.53 18.2 15.2 21.8 0.485 12.2 6.5 21.7 0.52 37 3.18 17.7 4.96 34.3-17.1 33-12.7 3.59-20.6 10.8-22.9 22.3-13.5-13.7-27.7-27-22.3-49.7z"/>
				<path d="m844 534c-6.33 12.7-13.2 71.8-57.2 69.4-32.9-1.81-47-39.7-62-72.6-18.8-41.4 2.01-62.8 55-66.8 65.5-4.84 65.3 34.6 64.1 70z"/>
			</g>
			<ellipse cx="748" cy="523" rx="12.5" ry="8.22" stroke="#1a1a1a" stroke-width="2.46"/>
		</g>
		<g>
			<ellipse cx="815" cy="510" rx="12.5" ry="8.22" fill="#ececec" stroke="#1a1a1a" stroke-width="2.46"/>
			<path d="m832 566c11.9 17.9-19 39-42.4 39-23.4 0-42.4-17.5-42.4-39 0-14.9 13.7-22.9 22.5-34.4 1.28-1.68 3.63-2.43 4.14-4.11 1.68-5.58-15-49.6-15-58.3-0.01-2.39 18.6-5.56 19.3-2.53 1.34 5.37 4.23 42.8 4.85 57.4 0.101 2.36 3.76 1.54 6.61 2.95 20.7 10.3 30.5 21 42.4 39z" fill="#fff" stroke="#000" stroke-width="2"/>
			<path d="m805 557c0 4.19-2.14 3.41-6.35 5.74-2.87 1.59-4.13 11.5-7.98 11.5-1.04 0-4.66 0.744-4.69-0.201-0.438-13.5-14.2-6.3-14.2-12.6-7e-3 -7.05 7.71-12.8 17.2-12.8 9.51 0 16 1.3 16 8.35z" fill="#fff" stroke="#1a1a1a" stroke-width="2"/>
		</g>
		<g>
			<ellipse cx="748" cy="523" rx="4.85" ry="5.24"/>
			<ellipse cx="815" cy="510" rx="4.85" ry="5.24"/>
			<path id="bouche" d="m815 582c0.174 3.19-4.71 6.39-12.8 8.38-8.1 1.99-18.2 2.48-26.5 1.28-8.27-1.2-13.5-3.91-13.6-7.1 28 0.503 39.5-1.79 52.9-2.56z" fill="#fff" stroke="#000" stroke-width="2"/>
			<path id="langue" d="m806 583c0.588 10.8-2 21.4-7.04 27-5.04 5.64-11.6 5.96-17.2 0.834-5.62-5.13-9.49-15.6-10.1-26.4 18.8-0.018 25.7-0.81 34.3-1.48z" fill="#fff" stroke="#000" stroke-width="2"/>
		</g>
	</g>
</svg>
